<svg width="36" height="36" viewBox="0 0 36 36" fill="none" xmlns="http://www.w3.org/2000/svg">
<path d="M16 27C17.1046 27 18 26.1046 18 25C18 23.8954 17.1046 23 16 23C14.8954 23 14 23.8954 14 25C14 26.1046 14.8954 27 16 27Z" fill="url(#paint0_linear_17_230)"/>
<path d="M26 27C27.1046 27 28 26.1046 28 25C28 23.8954 27.1046 23 26 23C24.8954 23 24 23.8954 24 25C24 26.1046 24.8954 27 26 27Z" fill="url(#paint1_linear_17_230)"/>
<path d="M29.5551 12.377C27.9845 12.377 26.4782 11.7688 25.3677 10.6863C24.2571 9.60379 23.6332 8.13559 23.6332 6.60468H13.1396L12.7843 5.5041C12.7453 5.38593 12.6775 5.27872 12.5868 5.19161C12.496 5.1045 12.385 5.04008 12.2632 5.00384L9.02591 4.0341C8.92637 4.00428 8.82177 3.99387 8.7181 4.00345C8.61443 4.01304 8.51372 4.04243 8.4217 4.08996C8.23586 4.18594 8.09676 4.34995 8.03498 4.54591C7.97321 4.74186 7.99382 4.95371 8.09229 5.13485C8.19076 5.31599 8.35902 5.45158 8.56006 5.5118L11.3947 6.3584L15.0109 17.495L13.7239 18.5264L13.6213 18.6264C13.303 18.9856 13.1227 19.4415 13.1111 19.916C13.0996 20.3906 13.2576 20.8543 13.5581 21.2278C13.7733 21.4829 14.0468 21.6854 14.3567 21.819C14.6665 21.9526 15.0042 22.0137 15.3426 21.9974H28.5207C28.7301 21.9974 28.931 21.9163 29.079 21.772C29.2271 21.6277 29.3103 21.4319 29.3103 21.2278C29.3103 21.0237 29.2271 20.8279 29.079 20.6836C28.931 20.5392 28.7301 20.4581 28.5207 20.4581H15.2162C15.1253 20.4551 15.0367 20.4293 14.959 20.3831C14.8813 20.337 14.8172 20.2721 14.7727 20.1947C14.7283 20.1174 14.705 20.0301 14.7053 19.9414C14.7055 19.8528 14.7292 19.7656 14.7741 19.6885L16.677 18.1492H28.8602C29.0406 18.1544 29.2173 18.0991 29.361 17.9927C29.5047 17.8863 29.6066 17.7351 29.6498 17.5643L31 12.1769C30.5287 12.3014 30.0433 12.3687 29.5551 12.377Z" fill="url(#paint2_linear_17_230)"/>
<path d="M29.5 11C31.9853 11 34 8.98528 34 6.5C34 4.01472 31.9853 2 29.5 2C27.0147 2 25 4.01472 25 6.5C25 8.98528 27.0147 11 29.5 11Z" fill="#C00015"/>
<defs>
<linearGradient id="paint0_linear_17_230" x1="14.5217" y1="23.2368" x2="18.3625" y2="26.3205" gradientUnits="userSpaceOnUse">
<stop stop-color="#3768F4"/>
<stop offset="0.950619" stop-color="#01207A"/>
</linearGradient>
<linearGradient id="paint1_linear_17_230" x1="24.5217" y1="23.2368" x2="28.3625" y2="26.3205" gradientUnits="userSpaceOnUse">
<stop stop-color="#3768F4"/>
<stop offset="0.950619" stop-color="#01207A"/>
</linearGradient>
<linearGradient id="paint2_linear_17_230" x1="10.9999" y1="5.06541" x2="28.6957" y2="23.2199" gradientUnits="userSpaceOnUse">
<stop stop-color="#3768F4"/>
<stop offset="0.950619" stop-color="#01207A"/>
</linearGradient>
</defs>
</svg>
