<svg width="20" height="20" viewBox="0 0 20 20" fill="none" xmlns="http://www.w3.org/2000/svg">
<path d="M7.31801 6.5C7.48601 5.627 7.715 4.843 7.98801 4.18C8.28901 3.447 8.63601 2.886 8.99601 2.517C9.35401 2.149 9.69301 2 10 2C10.307 2 10.646 2.149 11.004 2.517C11.364 2.887 11.711 3.447 12.012 4.18C12.285 4.843 12.514 5.627 12.682 6.5H7.31801ZM7.06301 3.8C7.27646 3.26188 7.55414 2.75152 7.89001 2.28C6.7911 2.58169 5.76911 3.11411 4.89212 3.84177C4.01514 4.56943 3.30329 5.47564 2.80401 6.5H6.30101C6.48301 5.493 6.74201 4.578 7.06301 3.8ZM12.937 3.8C12.7235 3.26223 12.4458 2.75221 12.11 2.281C13.2088 2.58258 14.2307 3.11484 15.1077 3.84233C15.9847 4.56981 16.6966 5.47582 17.196 6.5H13.699C13.517 5.493 13.258 4.578 12.937 3.8ZM13.85 7.5H17.602C17.836 8.212 17.972 8.968 17.996 9.753C17.2596 9.25559 16.3896 8.99337 15.501 9.001C14.961 9.001 14.453 9.091 13.987 9.256C13.967 8.66895 13.9212 8.08306 13.85 7.5ZM12.999 9.758C12.9908 9.00291 12.9384 8.24895 12.842 7.5H7.15801C7.05164 8.32907 6.99887 9.16414 7.00001 10C7.00001 10.875 7.05601 11.714 7.15801 12.5H11.14C11.412 11.372 12.07 10.391 12.999 9.758ZM11.003 13.5H7.31801C7.48601 14.373 7.715 15.157 7.98801 15.82C8.28901 16.553 8.63601 17.114 8.99601 17.483C9.35401 17.851 9.69301 18 10 18C10.307 18 10.646 17.851 11.004 17.483C11.258 17.223 11.506 16.866 11.736 16.42C11.245 15.486 11 14.55 11 13.682L11.003 13.5ZM2.80401 13.5C3.30351 14.5243 4.01556 15.4304 4.89272 16.1578C5.76989 16.8853 6.79201 17.4175 7.89101 17.719C7.55492 17.2482 7.27691 16.7385 7.06301 16.201C6.74301 15.421 6.48301 14.507 6.30101 13.5H2.80401ZM6.15001 12.5H2.39801C2.13336 11.6931 1.99901 10.8492 2.00001 10C2.00001 9.127 2.14001 8.287 2.39801 7.5H6.15001C6.05201 8.295 6.00001 9.134 6.00001 10C6.00001 10.866 6.05201 11.705 6.15001 12.5ZM19 13.682C19 11.649 17.535 10.001 15.501 10.001C13.468 10.001 12 11.649 12 13.682C12 15.206 12.982 17.212 15.256 18.918C15.401 19.028 15.601 19.028 15.746 18.918C18.022 17.212 19 15.206 19 13.682ZM17 13.5C17 13.8978 16.842 14.2794 16.5607 14.5607C16.2794 14.842 15.8978 15 15.5 15C15.1022 15 14.7206 14.842 14.4393 14.5607C14.158 14.2794 14 13.8978 14 13.5C14 13.1022 14.158 12.7206 14.4393 12.4393C14.7206 12.158 15.1022 12 15.5 12C15.8978 12 16.2794 12.158 16.5607 12.4393C16.842 12.7206 17 13.1022 17 13.5Z" fill="url(#paint0_linear_17_240)"/>
<defs>
<linearGradient id="paint0_linear_17_240" x1="4.2173" y1="3.00625" x2="20.541" y2="16.112" gradientUnits="userSpaceOnUse">
<stop stop-color="#3768F4"/>
<stop offset="0.950619" stop-color="#01207A"/>
</linearGradient>
</defs>
</svg>
